<mxfile host="drawio-plugin" modified="2022-01-19T15:47:55.541Z" agent="5.0 (Windows NT 6.2; Win64; x64) AppleWebKit/537.36 (KHTML, like Gecko) Chrome/89.0.4389.114 Safari/537.36" etag="RMdzGKkCtwBIuuVmJPsP" version="15.5.4" type="embed"><diagram id="SZwEHcaRAB94Mzbpmtfe" name="Page-1"><mxGraphModel dx="2184" dy="1061" grid="1" gridSize="10" guides="1" tooltips="1" connect="1" arrows="1" fold="1" page="1" pageScale="1" pageWidth="850" pageHeight="1100" math="0" shadow="0"><root><mxCell id="0"/><mxCell id="1" parent="0"/><mxCell id="9" style="edgeStyle=orthogonalEdgeStyle;rounded=0;orthogonalLoop=1;jettySize=auto;html=1;exitX=0;exitY=0.5;exitDx=0;exitDy=0;entryX=1;entryY=0.5;entryDx=0;entryDy=0;" parent="1" source="tHuGaXUihsf2I2ZlmDjD-1" edge="1"><mxGeometry relative="1" as="geometry"><mxPoint x="160" y="190" as="targetPoint"/></mxGeometry></mxCell><mxCell id="tHuGaXUihsf2I2ZlmDjD-1" value="Main &lt;br&gt;Window" style="ellipse;whiteSpace=wrap;html=1;aspect=fixed;fillColor=#0050ef;strokeColor=#001DBC;fontColor=#ffffff;" parent="1" vertex="1"><mxGeometry x="235" y="150" width="80" height="80" as="geometry"/></mxCell><mxCell id="tHuGaXUihsf2I2ZlmDjD-3" value="session" style="ellipse;whiteSpace=wrap;html=1;aspect=fixed;fillColor=#a20025;strokeColor=#6F0000;fontColor=#ffffff;" parent="1" vertex="1"><mxGeometry x="305" y="165" width="50" height="50" as="geometry"/></mxCell><mxCell id="tHuGaXUihsf2I2ZlmDjD-4" value="Menu Bar" style="ellipse;whiteSpace=wrap;html=1;aspect=fixed;fillColor=#0050ef;strokeColor=#001DBC;fontColor=#ffffff;" parent="1" vertex="1"><mxGeometry x="80" y="348.5" width="80" height="80" as="geometry"/></mxCell><mxCell id="tHuGaXUihsf2I2ZlmDjD-5" value="App" style="ellipse;whiteSpace=wrap;html=1;aspect=fixed;fillColor=#0050ef;strokeColor=#001DBC;fontColor=#ffffff;" parent="1" vertex="1"><mxGeometry x="380" y="360" width="80" height="80" as="geometry"/></mxCell><mxCell id="tHuGaXUihsf2I2ZlmDjD-6" value="" style="endArrow=classic;html=1;rounded=0;" parent="1" source="tHuGaXUihsf2I2ZlmDjD-1" target="tHuGaXUihsf2I2ZlmDjD-4" edge="1"><mxGeometry width="50" height="50" relative="1" as="geometry"><mxPoint x="260" y="220" as="sourcePoint"/><mxPoint x="225" y="410" as="targetPoint"/><Array as="points"/></mxGeometry></mxCell><mxCell id="tHuGaXUihsf2I2ZlmDjD-8" value="" style="endArrow=classic;html=1;rounded=0;entryX=0.5;entryY=0;entryDx=0;entryDy=0;exitX=1;exitY=1;exitDx=0;exitDy=0;" parent="1" source="tHuGaXUihsf2I2ZlmDjD-1" target="tHuGaXUihsf2I2ZlmDjD-5" edge="1"><mxGeometry width="50" height="50" relative="1" as="geometry"><mxPoint x="265" y="250" as="sourcePoint"/><mxPoint x="295" y="280" as="targetPoint"/><Array as="points"/></mxGeometry></mxCell><mxCell id="tHuGaXUihsf2I2ZlmDjD-15" value="" style="endArrow=classic;html=1;rounded=0;" parent="1" edge="1"><mxGeometry width="50" height="50" relative="1" as="geometry"><mxPoint x="80" y="388" as="sourcePoint"/><mxPoint x="-30" y="388" as="targetPoint"/></mxGeometry></mxCell><mxCell id="tHuGaXUihsf2I2ZlmDjD-23" value="&lt;span style=&quot;color: rgba(0 , 0 , 0 , 0) ; font-family: monospace ; font-size: 0px&quot;&gt;%3CmxGraphModel%3E%3Croot%3E%3CmxCell%20id%3D%220%22%2F%3E%3CmxCell%20id%3D%221%22%20parent%3D%220%22%2F%3E%3CmxCell%20id%3D%222%22%20value%3D%22onCloseGameRequest%22%20style%3D%22text%3BstrokeColor%3Dnone%3BfillColor%3Dnone%3Balign%3Dleft%3BverticalAlign%3Dmiddle%3BspacingLeft%3D4%3BspacingRight%3D4%3Boverflow%3Dhidden%3Bpoints%3D%5B%5B0%2C0.5%5D%2C%5B1%2C0.5%5D%5D%3BportConstraint%3Deastwest%3Brotatable%3D0%3B%22%20vertex%3D%221%22%20parent%3D%221%22%3E%3CmxGeometry%20x%3D%22-160%22%20y%3D%22330%22%20width%3D%22280%22%20height%3D%2230%22%20as%3D%22geometry%22%2F%3E%3C%2FmxCell%3E%3C%2Froot%3E%3C%2FmxGraphModel%3E&lt;/span&gt;" style="text;html=1;align=center;verticalAlign=middle;resizable=0;points=[];autosize=1;strokeColor=none;fillColor=none;" parent="1" vertex="1"><mxGeometry x="-280" y="875.74" width="20" height="20" as="geometry"/></mxCell><mxCell id="tHuGaXUihsf2I2ZlmDjD-31" value="" style="endArrow=classic;html=1;rounded=0;" parent="1" edge="1"><mxGeometry width="50" height="50" relative="1" as="geometry"><mxPoint x="279" y="50" as="sourcePoint"/><mxPoint x="279" y="120" as="targetPoint"/><Array as="points"><mxPoint x="279" y="50"/></Array></mxGeometry></mxCell><mxCell id="24" style="edgeStyle=orthogonalEdgeStyle;rounded=0;orthogonalLoop=1;jettySize=auto;html=1;exitX=1;exitY=0.5;exitDx=0;exitDy=0;entryX=0;entryY=0.5;entryDx=0;entryDy=0;fontSize=13;fontColor=#E8DFE7;" parent="1" source="tHuGaXUihsf2I2ZlmDjD-32" target="18" edge="1"><mxGeometry relative="1" as="geometry"/></mxCell><mxCell id="tHuGaXUihsf2I2ZlmDjD-32" value="RefreshTimer" style="ellipse;whiteSpace=wrap;html=1;aspect=fixed;fillColor=#0050ef;strokeColor=#001DBC;fontColor=#ffffff;" parent="1" vertex="1"><mxGeometry x="750" y="648.75" width="80" height="80" as="geometry"/></mxCell><mxCell id="36" style="edgeStyle=orthogonalEdgeStyle;rounded=0;orthogonalLoop=1;jettySize=auto;html=1;exitX=0;exitY=0.5;exitDx=0;exitDy=0;entryX=1;entryY=0.5;entryDx=0;entryDy=0;" edge="1" parent="1" source="tHuGaXUihsf2I2ZlmDjD-41" target="28"><mxGeometry relative="1" as="geometry"/></mxCell><mxCell id="tHuGaXUihsf2I2ZlmDjD-41" value="BoardView" style="ellipse;whiteSpace=wrap;html=1;aspect=fixed;fillColor=#0050ef;strokeColor=#001DBC;fontColor=#ffffff;" parent="1" vertex="1"><mxGeometry x="-230" y="635" width="80" height="80" as="geometry"/></mxCell><mxCell id="tHuGaXUihsf2I2ZlmDjD-42" value="" style="endArrow=classic;html=1;rounded=0;entryX=0.588;entryY=0.025;entryDx=0;entryDy=0;entryPerimeter=0;" parent="1" source="tHuGaXUihsf2I2ZlmDjD-5" target="tHuGaXUihsf2I2ZlmDjD-41" edge="1"><mxGeometry width="50" height="50" relative="1" as="geometry"><mxPoint x="281.71572875253787" y="460.00427124746216" as="sourcePoint"/><mxPoint x="240" y="491.72" as="targetPoint"/><Array as="points"/></mxGeometry></mxCell><mxCell id="tHuGaXUihsf2I2ZlmDjD-49" value="move" style="ellipse;whiteSpace=wrap;html=1;aspect=fixed;fillColor=#a20025;strokeColor=#6F0000;fontColor=#ffffff;" parent="1" vertex="1"><mxGeometry x="400" y="418.5" width="50" height="50" as="geometry"/></mxCell><mxCell id="tHuGaXUihsf2I2ZlmDjD-50" value="availableMoves" style="ellipse;whiteSpace=wrap;html=1;aspect=fixed;fillColor=#a20025;strokeColor=#6F0000;fontColor=#ffffff;" parent="1" vertex="1"><mxGeometry x="350" y="340" width="60" height="60" as="geometry"/></mxCell><mxCell id="tHuGaXUihsf2I2ZlmDjD-54" value="Tile" style="ellipse;whiteSpace=wrap;html=1;aspect=fixed;fillColor=#0050ef;strokeColor=#001DBC;fontColor=#ffffff;" parent="1" vertex="1"><mxGeometry x="-450" y="847.5" width="80" height="80" as="geometry"/></mxCell><mxCell id="tHuGaXUihsf2I2ZlmDjD-57" value="Column/Row&lt;br&gt;Identifier" style="ellipse;whiteSpace=wrap;html=1;aspect=fixed;fillColor=#0050ef;strokeColor=#001DBC;fontColor=#ffffff;" parent="1" vertex="1"><mxGeometry x="-350" y="849.22" width="80" height="80" as="geometry"/></mxCell><mxCell id="tHuGaXUihsf2I2ZlmDjD-62" value="EndGamePopUp" style="ellipse;whiteSpace=wrap;html=1;aspect=fixed;fillColor=#0050ef;strokeColor=#001DBC;fontColor=#ffffff;" parent="1" vertex="1"><mxGeometry x="-560" y="840.74" width="90" height="90" as="geometry"/></mxCell><mxCell id="74" style="edgeStyle=orthogonalEdgeStyle;rounded=0;orthogonalLoop=1;jettySize=auto;html=1;exitX=1;exitY=0.5;exitDx=0;exitDy=0;entryX=0;entryY=0.5;entryDx=0;entryDy=0;fontSize=11;fontColor=#F0E4EE;" edge="1" parent="1" source="tHuGaXUihsf2I2ZlmDjD-63" target="40"><mxGeometry relative="1" as="geometry"/></mxCell><mxCell id="tHuGaXUihsf2I2ZlmDjD-63" value="RightPanelView" style="ellipse;whiteSpace=wrap;html=1;aspect=fixed;fillColor=#0050ef;strokeColor=#001DBC;fontColor=#ffffff;" parent="1" vertex="1"><mxGeometry x="235" y="647.5" width="80" height="80" as="geometry"/></mxCell><mxCell id="tHuGaXUihsf2I2ZlmDjD-64" value="MovesView" style="ellipse;whiteSpace=wrap;html=1;aspect=fixed;fillColor=#0050ef;strokeColor=#001DBC;fontColor=#ffffff;" parent="1" vertex="1"><mxGeometry x="320" y="908.24" width="80" height="80" as="geometry"/></mxCell><mxCell id="tHuGaXUihsf2I2ZlmDjD-65" value="LoggingView" style="ellipse;whiteSpace=wrap;html=1;aspect=fixed;fillColor=#0050ef;strokeColor=#001DBC;fontColor=#ffffff;" parent="1" vertex="1"><mxGeometry x="155" y="908.24" width="80" height="80" as="geometry"/></mxCell><mxCell id="tHuGaXUihsf2I2ZlmDjD-66" value="GameInfoView" style="ellipse;whiteSpace=wrap;html=1;aspect=fixed;fillColor=#0050ef;strokeColor=#001DBC;fontColor=#ffffff;" parent="1" vertex="1"><mxGeometry x="730" y="828.24" width="80" height="80" as="geometry"/></mxCell><mxCell id="tHuGaXUihsf2I2ZlmDjD-67" value="" style="endArrow=classic;html=1;rounded=0;entryX=0.5;entryY=0;entryDx=0;entryDy=0;" parent="1" source="tHuGaXUihsf2I2ZlmDjD-5" target="tHuGaXUihsf2I2ZlmDjD-63" edge="1"><mxGeometry width="50" height="50" relative="1" as="geometry"><mxPoint x="510" y="400" as="sourcePoint"/><mxPoint x="515.86" y="450.86" as="targetPoint"/><Array as="points"/></mxGeometry></mxCell><mxCell id="tHuGaXUihsf2I2ZlmDjD-72" value="" style="endArrow=classic;html=1;rounded=0;exitX=0;exitY=1;exitDx=0;exitDy=0;entryX=0.726;entryY=0.068;entryDx=0;entryDy=0;entryPerimeter=0;" parent="1" source="tHuGaXUihsf2I2ZlmDjD-65" target="tHuGaXUihsf2I2ZlmDjD-76" edge="1"><mxGeometry width="50" height="50" relative="1" as="geometry"><mxPoint x="606.7157287525206" y="928.2842712474796" as="sourcePoint"/><mxPoint x="695" y="1027.0399999999997" as="targetPoint"/><Array as="points"/></mxGeometry></mxCell><mxCell id="tHuGaXUihsf2I2ZlmDjD-75" value="" style="endArrow=classic;html=1;rounded=0;exitX=1;exitY=1;exitDx=0;exitDy=0;entryX=0.28;entryY=0.077;entryDx=0;entryDy=0;entryPerimeter=0;" parent="1" edge="1" target="tHuGaXUihsf2I2ZlmDjD-77" source="tHuGaXUihsf2I2ZlmDjD-65"><mxGeometry width="50" height="50" relative="1" as="geometry"><mxPoint x="269.99572875253784" y="980.0042712474622" as="sourcePoint"/><mxPoint x="290" y="1051.72" as="targetPoint"/><Array as="points"/></mxGeometry></mxCell><mxCell id="80" style="edgeStyle=orthogonalEdgeStyle;rounded=0;orthogonalLoop=1;jettySize=auto;html=1;exitX=0;exitY=0.5;exitDx=0;exitDy=0;fontSize=11;fontColor=#F0E4EE;" edge="1" parent="1" source="tHuGaXUihsf2I2ZlmDjD-76"><mxGeometry relative="1" as="geometry"><mxPoint x="20" y="1060.4285714285716" as="targetPoint"/></mxGeometry></mxCell><mxCell id="tHuGaXUihsf2I2ZlmDjD-76" value="MenuView" style="ellipse;whiteSpace=wrap;html=1;aspect=fixed;fillColor=#0050ef;strokeColor=#001DBC;fontColor=#ffffff;" parent="1" vertex="1"><mxGeometry x="70" y="1020" width="80" height="80" as="geometry"/></mxCell><mxCell id="79" style="edgeStyle=orthogonalEdgeStyle;rounded=0;orthogonalLoop=1;jettySize=auto;html=1;exitX=1;exitY=0.5;exitDx=0;exitDy=0;entryX=0;entryY=0.5;entryDx=0;entryDy=0;fontSize=11;fontColor=#F0E4EE;" edge="1" parent="1" source="tHuGaXUihsf2I2ZlmDjD-77" target="76"><mxGeometry relative="1" as="geometry"/></mxCell><mxCell id="tHuGaXUihsf2I2ZlmDjD-77" value="MenuOptionView" style="ellipse;whiteSpace=wrap;html=1;aspect=fixed;fillColor=#0050ef;strokeColor=#001DBC;fontColor=#ffffff;" parent="1" vertex="1"><mxGeometry x="235" y="1020" width="80" height="80" as="geometry"/></mxCell><mxCell id="2" value="AppOptions" style="ellipse;whiteSpace=wrap;html=1;aspect=fixed;fillColor=#a20025;strokeColor=#6F0000;fontColor=#ffffff;" parent="1" vertex="1"><mxGeometry x="280" y="200" width="50" height="50" as="geometry"/></mxCell><mxCell id="10" value="OnEvents ( definidos ao nível do Main )" style="swimlane;" parent="1" vertex="1"><mxGeometry x="-70" y="158.75" width="230" height="62.5" as="geometry"/></mxCell><mxCell id="12" value="&lt;span style=&quot;text-align: left&quot;&gt;onCloseRequest&lt;/span&gt;" style="text;html=1;align=center;verticalAlign=middle;resizable=0;points=[];autosize=1;strokeColor=none;fillColor=none;" parent="10" vertex="1"><mxGeometry x="65" y="30" width="100" height="20" as="geometry"/></mxCell><mxCell id="11" value="&lt;span style=&quot;color: rgba(0 , 0 , 0 , 0) ; font-family: monospace ; font-size: 0px&quot;&gt;%3CmxGraphModel%3E%3Croot%3E%3CmxCell%20id%3D%220%22%2F%3E%3CmxCell%20id%3D%221%22%20parent%3D%220%22%2F%3E%3CmxCell%20id%3D%222%22%20value%3D%22%26lt%3Bspan%20style%3D%26quot%3Btext-align%3A%20left%26quot%3B%26gt%3BonCloseRequest%26lt%3B%2Fspan%26gt%3B%22%20style%3D%22text%3Bhtml%3D1%3Balign%3Dcenter%3BverticalAlign%3Dmiddle%3Bresizable%3D0%3Bpoints%3D%5B%5D%3Bautosize%3D1%3BstrokeColor%3Dnone%3BfillColor%3Dnone%3B%22%20vertex%3D%221%22%20parent%3D%221%22%3E%3CmxGeometry%20x%3D%22-8.75%22%20y%3D%22212.5%22%20width%3D%22100%22%20height%3D%2220%22%20as%3D%22geometry%22%2F%3E%3C%2FmxCell%3E%3C%2Froot%3E%3C%2FmxGraphModel%3E&lt;/span&gt;" style="text;html=1;align=center;verticalAlign=middle;resizable=0;points=[];autosize=1;strokeColor=none;fillColor=none;" parent="1" vertex="1"><mxGeometry x="-180" y="210" width="20" height="20" as="geometry"/></mxCell><mxCell id="13" value="OnEvents ( definidos ao nível da Main Window )" style="swimlane;" parent="1" vertex="1"><mxGeometry x="-310" y="313.5" width="280" height="150" as="geometry"/></mxCell><mxCell id="tHuGaXUihsf2I2ZlmDjD-22" value="&lt;span style=&quot;text-align: left&quot;&gt;onRefreshGameRequest&lt;/span&gt;" style="text;html=1;align=center;verticalAlign=middle;resizable=0;points=[];autosize=1;strokeColor=none;fillColor=none;" parent="13" vertex="1"><mxGeometry x="65" y="30" width="150" height="20" as="geometry"/></mxCell><mxCell id="tHuGaXUihsf2I2ZlmDjD-25" value="&lt;span style=&quot;text-align: left&quot;&gt;onCloseGameRequest&lt;/span&gt;" style="text;html=1;align=center;verticalAlign=middle;resizable=0;points=[];autosize=1;strokeColor=none;fillColor=none;" parent="13" vertex="1"><mxGeometry x="70" y="60" width="140" height="20" as="geometry"/></mxCell><mxCell id="tHuGaXUihsf2I2ZlmDjD-26" value="&lt;span style=&quot;text-align: left&quot;&gt;onShowTargetsChange&lt;/span&gt;" style="text;html=1;align=center;verticalAlign=middle;resizable=0;points=[];autosize=1;strokeColor=none;fillColor=none;" parent="13" vertex="1"><mxGeometry x="70" y="90" width="140" height="20" as="geometry"/></mxCell><mxCell id="tHuGaXUihsf2I2ZlmDjD-27" value="&lt;span style=&quot;text-align: left&quot;&gt;onSinglePlayerChange&lt;/span&gt;" style="text;html=1;align=center;verticalAlign=middle;resizable=0;points=[];autosize=1;strokeColor=none;fillColor=none;" parent="13" vertex="1"><mxGeometry x="70" y="120" width="140" height="20" as="geometry"/></mxCell><mxCell id="14" value="" style="endArrow=classic;html=1;rounded=0;fontColor=default;exitX=1.004;exitY=0.666;exitDx=0;exitDy=0;exitPerimeter=0;" parent="1" source="tHuGaXUihsf2I2ZlmDjD-5" target="tHuGaXUihsf2I2ZlmDjD-66" edge="1"><mxGeometry relative="1" as="geometry"><mxPoint x="559.9966813971594" y="285.1257968711411" as="sourcePoint"/><mxPoint x="560" y="540" as="targetPoint"/></mxGeometry></mxCell><mxCell id="15" value="If Session.isNotLogging" style="edgeLabel;resizable=0;html=1;align=center;verticalAlign=middle;fontColor=default;fontSize=10;" parent="14" connectable="0" vertex="1"><mxGeometry relative="1" as="geometry"><mxPoint x="-15" as="offset"/></mxGeometry></mxCell><mxCell id="16" value="" style="endArrow=classic;html=1;rounded=0;fontColor=default;entryX=0;entryY=0;entryDx=0;entryDy=0;exitX=1;exitY=0.5;exitDx=0;exitDy=0;" parent="1" source="tHuGaXUihsf2I2ZlmDjD-5" target="tHuGaXUihsf2I2ZlmDjD-32" edge="1"><mxGeometry relative="1" as="geometry"><mxPoint x="566.0337718168273" y="279.9954228233689" as="sourcePoint"/><mxPoint x="704.0157287525205" y="584.7257287525204" as="targetPoint"/></mxGeometry></mxCell><mxCell id="17" value="If Session.isWaiting" style="edgeLabel;resizable=0;html=1;align=center;verticalAlign=middle;fontColor=default;fontSize=10;" parent="16" connectable="0" vertex="1"><mxGeometry relative="1" as="geometry"><mxPoint x="15" as="offset"/></mxGeometry></mxCell><mxCell id="18" value="OnEvents ( definidos ao nível da App )" style="swimlane;" parent="1" vertex="1"><mxGeometry x="860" y="652.5" width="280" height="75" as="geometry"/></mxCell><mxCell id="23" value="onRefresh" style="text;html=1;align=center;verticalAlign=middle;resizable=0;points=[];autosize=1;strokeColor=none;fillColor=none;fontSize=13;fontColor=#E8DFE7;" parent="18" vertex="1"><mxGeometry x="100" y="40" width="80" height="20" as="geometry"/></mxCell><mxCell id="26" value="showPromotionView" style="ellipse;whiteSpace=wrap;html=1;aspect=fixed;fillColor=#a20025;strokeColor=#6F0000;fontColor=#ffffff;" vertex="1" parent="1"><mxGeometry x="432.24" y="340" width="60" height="60" as="geometry"/></mxCell><mxCell id="28" value="OnEvents ( definidos ao nível da App )" style="swimlane;" vertex="1" parent="1"><mxGeometry x="-670" y="607.5" width="250" height="135" as="geometry"/></mxCell><mxCell id="35" value="onClikedTile" style="text;html=1;align=center;verticalAlign=middle;resizable=0;points=[];autosize=1;strokeColor=none;fillColor=none;" vertex="1" parent="28"><mxGeometry x="90" y="95" width="80" height="20" as="geometry"/></mxCell><mxCell id="33" value="onLoggingRequest" style="text;html=1;align=center;verticalAlign=middle;resizable=0;points=[];autosize=1;strokeColor=none;fillColor=none;" vertex="1" parent="28"><mxGeometry x="70" y="35" width="120" height="20" as="geometry"/></mxCell><mxCell id="34" value="onMakeMoveRequest" style="text;html=1;align=center;verticalAlign=middle;resizable=0;points=[];autosize=1;strokeColor=none;fillColor=none;" vertex="1" parent="28"><mxGeometry x="65" y="65" width="130" height="20" as="geometry"/></mxCell><mxCell id="62" style="edgeStyle=orthogonalEdgeStyle;rounded=0;orthogonalLoop=1;jettySize=auto;html=1;exitX=0.5;exitY=1;exitDx=0;exitDy=0;entryX=0.5;entryY=0;entryDx=0;entryDy=0;fontSize=11;fontColor=#F0E4EE;" edge="1" parent="1" source="37" target="56"><mxGeometry relative="1" as="geometry"/></mxCell><mxCell id="37" value="showPromotionView" style="ellipse;whiteSpace=wrap;html=1;aspect=fixed;fillColor=#0050ef;strokeColor=#001DBC;fontColor=#ffffff;" vertex="1" parent="1"><mxGeometry x="-35" y="646.52" width="80" height="80" as="geometry"/></mxCell><mxCell id="38" value="" style="endArrow=classic;html=1;rounded=0;fontColor=default;entryX=0.675;entryY=0.041;entryDx=0;entryDy=0;entryPerimeter=0;" edge="1" parent="1" target="37"><mxGeometry relative="1" as="geometry"><mxPoint x="390" y="420" as="sourcePoint"/><mxPoint x="250" y="620" as="targetPoint"/></mxGeometry></mxCell><mxCell id="39" value="If showPromotionView" style="edgeLabel;resizable=0;html=1;align=center;verticalAlign=middle;fontColor=default;fontSize=10;" connectable="0" vertex="1" parent="38"><mxGeometry relative="1" as="geometry"><mxPoint x="-15" as="offset"/></mxGeometry></mxCell><mxCell id="40" value="OnEvents ( definidos ao nível da App )" style="swimlane;" vertex="1" parent="1"><mxGeometry x="330" y="647.5" width="250" height="82.5" as="geometry"/></mxCell><mxCell id="46" value="&lt;pre style=&quot;background-color: rgb(43, 43, 43); font-family: &amp;quot;jetbrains mono&amp;quot;, monospace; font-size: 9.8pt;&quot;&gt;&lt;span style=&quot;&quot;&gt;onOpenSessionRequest&lt;/span&gt;&lt;/pre&gt;" style="text;html=1;align=center;verticalAlign=middle;resizable=0;points=[];autosize=1;strokeColor=none;fillColor=none;fontSize=10;fontColor=#F0E4EE;" vertex="1" parent="40"><mxGeometry x="45" y="35" width="160" height="40" as="geometry"/></mxCell><mxCell id="49" value="" style="endArrow=classic;html=1;rounded=0;fontSize=10;fontColor=#F0E4EE;exitX=0.5;exitY=1;exitDx=0;exitDy=0;entryX=0.5;entryY=0;entryDx=0;entryDy=0;" edge="1" parent="1" source="tHuGaXUihsf2I2ZlmDjD-41" target="tHuGaXUihsf2I2ZlmDjD-57"><mxGeometry width="50" height="50" relative="1" as="geometry"><mxPoint x="-175" y="807.5" as="sourcePoint"/><mxPoint x="-125" y="757.5" as="targetPoint"/></mxGeometry></mxCell><mxCell id="52" value="" style="endArrow=classic;html=1;rounded=0;fontSize=10;fontColor=#F0E4EE;entryX=0.5;entryY=0;entryDx=0;entryDy=0;" edge="1" parent="1" source="tHuGaXUihsf2I2ZlmDjD-41" target="tHuGaXUihsf2I2ZlmDjD-54"><mxGeometry width="50" height="50" relative="1" as="geometry"><mxPoint x="-270" y="697.5" as="sourcePoint"/><mxPoint x="-220" y="647.5" as="targetPoint"/><Array as="points"/></mxGeometry></mxCell><mxCell id="54" value="" style="endArrow=classic;html=1;rounded=0;fontSize=10;fontColor=#F0E4EE;exitX=0.004;exitY=0.644;exitDx=0;exitDy=0;entryX=0.5;entryY=0;entryDx=0;entryDy=0;exitPerimeter=0;" edge="1" parent="1" source="tHuGaXUihsf2I2ZlmDjD-41" target="tHuGaXUihsf2I2ZlmDjD-62"><mxGeometry relative="1" as="geometry"><mxPoint x="-20" y="877.5" as="sourcePoint"/><mxPoint x="-30" y="1047.5" as="targetPoint"/></mxGeometry></mxCell><mxCell id="55" value="If Session.state is Ended" style="edgeLabel;resizable=0;html=1;align=center;verticalAlign=middle;fontSize=11;fontColor=#F0E4EE;" connectable="0" vertex="1" parent="54"><mxGeometry relative="1" as="geometry"/></mxCell><mxCell id="56" value="OnEvents ( definidos ao nível da App )" style="swimlane;" vertex="1" parent="1"><mxGeometry x="-105" y="770" width="220" height="86.72" as="geometry"/></mxCell><mxCell id="57" value="&lt;pre style=&quot;background-color: rgb(43 , 43 , 43) ; font-family: &amp;#34;jetbrains mono&amp;#34; , monospace ; font-size: 9.8pt&quot;&gt;&lt;span&gt;onPieceTypeSelected&lt;/span&gt;&lt;/pre&gt;" style="text;html=1;align=center;verticalAlign=middle;resizable=0;points=[];autosize=1;strokeColor=none;fillColor=none;fontSize=10;fontColor=#F0E4EE;" vertex="1" parent="56"><mxGeometry x="35" y="33.28" width="150" height="40" as="geometry"/></mxCell><mxCell id="63" value="" style="endArrow=classic;html=1;rounded=0;fontSize=11;fontColor=#F0E4EE;entryX=0.5;entryY=0;entryDx=0;entryDy=0;exitX=1;exitY=1;exitDx=0;exitDy=0;" edge="1" parent="1" source="tHuGaXUihsf2I2ZlmDjD-63" target="tHuGaXUihsf2I2ZlmDjD-64"><mxGeometry relative="1" as="geometry"><mxPoint x="290" y="720" as="sourcePoint"/><mxPoint x="805" y="800" as="targetPoint"/></mxGeometry></mxCell><mxCell id="64" value="If !Session.isLogging" style="edgeLabel;resizable=0;html=1;align=center;verticalAlign=middle;fontSize=11;fontColor=#F0E4EE;" connectable="0" vertex="1" parent="63"><mxGeometry relative="1" as="geometry"><mxPoint x="-2" y="8" as="offset"/></mxGeometry></mxCell><mxCell id="65" value="" style="endArrow=classic;html=1;rounded=0;fontSize=11;fontColor=#F0E4EE;entryX=0.5;entryY=0;entryDx=0;entryDy=0;exitX=0;exitY=1;exitDx=0;exitDy=0;" edge="1" parent="1" source="tHuGaXUihsf2I2ZlmDjD-63" target="tHuGaXUihsf2I2ZlmDjD-65"><mxGeometry relative="1" as="geometry"><mxPoint x="705" y="831.7899999999997" as="sourcePoint"/><mxPoint x="805" y="831.7899999999997" as="targetPoint"/></mxGeometry></mxCell><mxCell id="66" value="If Session.isLogging" style="edgeLabel;resizable=0;html=1;align=center;verticalAlign=middle;fontSize=11;fontColor=#F0E4EE;" connectable="0" vertex="1" parent="65"><mxGeometry relative="1" as="geometry"><mxPoint x="-5" y="2" as="offset"/></mxGeometry></mxCell><mxCell id="75" value="" style="edgeStyle=orthogonalEdgeStyle;rounded=0;orthogonalLoop=1;jettySize=auto;html=1;fontSize=11;fontColor=#F0E4EE;" edge="1" parent="1" source="57" target="37"><mxGeometry relative="1" as="geometry"/></mxCell><mxCell id="76" value="OnEvents ( definidos ao nível da LoggingView )" style="swimlane;" vertex="1" parent="1"><mxGeometry x="370" y="1016.64" width="270" height="86.72" as="geometry"/></mxCell><mxCell id="77" value="&lt;pre style=&quot;background-color: rgb(43 , 43 , 43) ; font-family: &amp;#34;jetbrains mono&amp;#34; , monospace ; font-size: 9.8pt&quot;&gt;&lt;span&gt;onCancelRequest&lt;/span&gt;&lt;/pre&gt;" style="text;html=1;align=center;verticalAlign=middle;resizable=0;points=[];autosize=1;strokeColor=none;fillColor=none;fontSize=10;fontColor=#F0E4EE;" vertex="1" parent="76"><mxGeometry x="80" y="33.28" width="120" height="40" as="geometry"/></mxCell><mxCell id="81" value="OnEvents ( definidos ao nível da LoggingView )" style="swimlane;" vertex="1" parent="1"><mxGeometry x="-250" y="1012.9999999999999" width="270" height="86.72" as="geometry"/></mxCell><mxCell id="82" value="&lt;pre style=&quot;background-color: rgb(43 , 43 , 43) ; font-family: &amp;#34;jetbrains mono&amp;#34; , monospace ; font-size: 9.8pt&quot;&gt;&lt;span&gt;onCommandSelected&lt;/span&gt;&lt;/pre&gt;" style="text;html=1;align=center;verticalAlign=middle;resizable=0;points=[];autosize=1;strokeColor=none;fillColor=none;fontSize=10;fontColor=#F0E4EE;" vertex="1" parent="81"><mxGeometry x="70" y="33.28" width="140" height="40" as="geometry"/></mxCell><mxCell id="83" value="selectedCommand" style="ellipse;whiteSpace=wrap;html=1;aspect=fixed;fillColor=#a20025;strokeColor=#6F0000;fontColor=#ffffff;" vertex="1" parent="1"><mxGeometry x="170" y="970" width="50" height="50" as="geometry"/></mxCell><mxCell id="84" value="textState" style="ellipse;whiteSpace=wrap;html=1;aspect=fixed;fillColor=#a20025;strokeColor=#6F0000;fontColor=#ffffff;" vertex="1" parent="1"><mxGeometry x="270" y="1070" width="50" height="50" as="geometry"/></mxCell></root></mxGraphModel></diagram></mxfile>